<?xml version="1.0" standalone="no"?><!DOCTYPE svg PUBLIC "-//W3C//DTD SVG 1.1//EN" "http://www.w3.org/Graphics/SVG/1.1/DTD/svg11.dtd"><svg t="1777020785362" class="icon" viewBox="0 0 1024 1024" version="1.1" xmlns="http://www.w3.org/2000/svg" p-id="4944" xmlns:xlink="http://www.w3.org/1999/xlink" width="32" height="32"><path d="M64 122.102v599.372l30.58 27.522h327.208v61.16H244.423v58.102h238.526c-40.774-53.006-61.16-112.127-61.16-177.365H125.16v-538.21h715.577v262.99c20.387 10.193 39.754 22.425 58.102 36.696V122.102L871.317 94.58H94.58L64 122.102z m657.474 330.267c42.812 0 82.567 10.703 119.263 32.109 36.696 21.406 65.747 50.457 87.154 87.154C949.297 608.328 960 648.082 960 690.894s-10.703 82.567-32.109 119.263c-21.406 36.696-50.457 65.747-87.154 87.154-36.696 21.406-76.451 32.109-119.263 32.109-42.812 0-82.567-10.703-119.263-32.109-36.696-21.406-65.747-50.457-87.154-87.154-21.406-36.696-32.109-76.451-32.109-119.263 0-42.812 10.703-82.567 32.109-119.263 21.406-36.696 50.457-65.747 87.154-87.154 36.697-21.405 76.451-32.108 119.263-32.108z m0 415.89c32.619 0 62.689-7.645 90.212-22.935 27.522-15.29 48.928-36.696 64.218-64.218 15.29-27.522 22.935-57.593 22.935-90.212s-7.645-62.689-22.935-90.212c-15.29-27.522-36.696-49.438-64.218-65.747-27.522-16.309-57.593-24.464-90.212-24.464s-62.689 8.155-90.212 24.464c-27.522 16.309-49.438 38.225-65.747 65.747-16.309 27.522-24.464 57.593-24.464 90.212s8.155 62.689 24.464 90.212c16.309 27.522 38.225 48.928 65.747 64.218 27.523 15.29 57.594 22.935 90.212 22.935z m125.379-143.727l-58.102-58.102 58.102-55.044-27.522-27.522-79.509 82.567 79.509 82.567 27.522-24.466z m-204.887-79.508l82.567 82.567-82.567 82.567-24.464-24.464 55.044-58.102-55.044-55.044 24.464-27.524z" p-id="4945" fill="#1296db"></path></svg>